<svg xmlns="http://www.w3.org/2000/svg" width="20" height="20">
    <g transform="translate(0 -1032.362)">
        <circle style="opacity:1;fill:#fff;fill-opacity:0;stroke:#59f;stroke-width:2.09991264;stroke-linecap:round;stroke-linejoin:round;stroke-miterlimit:4;stroke-dasharray:none;stroke-opacity:1" cx="10" cy="1042.362" r="8.95" fill="none"/>
        <g style="stroke:#fff">
            <path d="M455.614 291.302c-83.21 40.027-157.782 60.705-221.475 54.295 69.72 20.102 130.328 13.44 189.403 2.273zM288.4 261.16c83.21-40.027 157.782-60.705 221.476-54.295-69.72-20.102-130.329-13.44-189.404-2.273Z" style="opacity:1;fill:#59f;fill-opacity:1;stroke:#fff;stroke-width:.30000001;stroke-miterlimit:4;stroke-dasharray:none;stroke-opacity:1" transform="matrix(.06494 0 0 .06035 -14.157 1025.691)"/>
            <path d="M364.984 237.068c18.567 17.421 45.23 33.043 81.976 46.424l-80.441 35.373c-30.306-11.35-55.643-27.668-75.848-49.118l74.313-32.679" style="opacity:1;fill:#535d6c;fill-opacity:1;stroke:#fff;stroke-width:.30000001;stroke-miterlimit:4;stroke-dasharray:none;stroke-opacity:1" transform="matrix(.06494 0 0 .06035 -14.157 1025.691)"/>
        </g>
    </g>
</svg>
